<svg width="58" height="51" fill="none" xmlns="http://www.w3.org/2000/svg"><path d="M24.458 24.5c6.722 0 12.167-5.445 12.167-12.167C36.625 5.611 31.18.167 24.458.167c-6.722 0-12.166 5.444-12.166 12.166S17.736 24.5 24.458 24.5Zm0-18.25c3.346 0 6.084 2.738 6.084 6.083 0 3.346-2.738 6.084-6.084 6.084-3.345 0-6.083-2.738-6.083-6.084 0-3.345 2.738-6.083 6.083-6.083Zm-18.25 36.5c.609-1.916 7.817-5.11 15.087-5.9l6.205-6.084c-1.186-.122-2.068-.183-3.042-.183-8.12 0-24.333 4.076-24.333 12.167v6.083H27.5l-6.083-6.083H6.208Zm47.45-16.73L38.055 41.747l-6.297-6.326-4.258 4.288 10.555 10.646L57.917 30.31l-4.259-4.29Z" fill="#fff"/></svg>