<svg width="20" height="20" fill="none" xmlns="http://www.w3.org/2000/svg"><circle cx="10" cy="10" r="10" fill="#fff"/><path d="M15.385 12.112c-.183-.244-.224-.49-.124-.74.25-.667 3.886-4.9 2.371-4.9-1.04.013-2.293 0-3.29 0a.494.494 0 0 0-.381.333c-.584 1.32-1.298 2.93-2.344 3.964-.138.11-.224.104-.38.064-.735-.758.048-3.354-.399-4.38-.088-.2-.28-.291-.477-.342-.997-.233-3.274-.094-3.645.374-.106.134-.121.207-.044.22.354.054.604.185.752.392.278.6.483 3.8-.337 3.8-.819 0-2.14-3.14-2.503-4.01-.097-.262-.342-.412-.601-.457l-2.424.018c-.426 0-.664.207-.513.622 1.262 3.072 4.025 9.027 8.262 8.878.424 0 1.155.16 1.486-.201.456-.593-.1-1.648.681-2.05.197-.103.401-.017.57.11.87.648 1.33 1.787 2.402 2.132.189.061.354.076.496.046l2.264-.037c.42 0 .835-.183.748-.676-.33-1.057-1.646-2.143-2.57-3.16Z" fill="#000"/></svg>