<svg width="22" height="16" fill="none" xmlns="http://www.w3.org/2000/svg"><path d="M.192 3.097A3.053 3.053 0 0 1 3.1.247C5.353.134 8.573 0 11 0c2.427 0 5.647.135 7.9.246a3.053 3.053 0 0 1 2.908 2.85c.097 1.49.192 3.323.192 4.761 0 1.438-.095 3.271-.192 4.76a3.053 3.053 0 0 1-2.907 2.851c-2.254.112-5.474.246-7.901.246-2.427 0-5.647-.134-7.9-.246a3.053 3.053 0 0 1-2.908-2.85C.095 11.128 0 9.295 0 7.858c0-1.439.095-3.272.192-4.761Z" fill="#fff"/><path d="M8.643 4.714V11l6.285-3.143-6.285-3.143Z" fill="#1C1C1C"/></svg>