<svg width="50" height="50" fill="none" xmlns="http://www.w3.org/2000/svg"><path d="M13.625 10.417c.125 1.854.438 3.666.938 5.396l-2.5 2.5a30.885 30.885 0 0 1-1.584-7.896h3.146Zm20.542 25.041c1.77.5 3.583.813 5.416.938V39.5a32.14 32.14 0 0 1-7.916-1.563l2.5-2.479ZM15.625 6.25H8.333A2.09 2.09 0 0 0 6.25 8.333c0 19.563 15.854 35.417 35.417 35.417a2.09 2.09 0 0 0 2.083-2.083v-7.271a2.09 2.09 0 0 0-2.083-2.084c-2.584 0-5.105-.416-7.438-1.187a1.75 1.75 0 0 0-.646-.104c-.541 0-1.062.208-1.479.604l-4.583 4.583c-5.896-3.02-10.73-7.833-13.73-13.729l4.584-4.583a2.09 2.09 0 0 0 .52-2.125 23.668 23.668 0 0 1-1.187-7.438 2.09 2.09 0 0 0-2.083-2.083Z" fill="#fff"/></svg>